<svg width="20" height="20" viewBox="0 0 20 20" fill="none" xmlns="http://www.w3.org/2000/svg">
<path fill-rule="evenodd" clip-rule="evenodd" d="M10.5139 15.2841L6.06545 18.6848C5.0587 19.4545 3.61004 18.7355 3.60796 17.4701L3.60414 15.1541C1.53288 14.656 0 12.7858 0 10.564V4.72006C0 2.11409 2.10604 0 4.70588 0H15.2941C17.894 0 20 2.11409 20 4.72006V10.564C20 13.17 17.894 15.2841 15.2941 15.2841H10.5139ZM5.60639 16.5183L9.56816 13.4896C9.74255 13.3563 9.95597 13.2841 10.1755 13.2841H15.2941C16.7877 13.2841 18 12.0671 18 10.564V4.72006C18 3.21696 16.7877 2 15.2941 2H4.70588C3.21232 2 2 3.21696 2 4.72006V10.564C2 12.0388 3.16906 13.243 4.63013 13.2831C5.17089 13.2979 5.60181 13.7401 5.6027 14.281L5.60639 16.5183Z" fill="#92929D"/>
</svg>
