<svg width="16" height="16" viewBox="0 0 16 16" fill="none" xmlns="http://www.w3.org/2000/svg">
<g clip-path="url(#linkedin)">
<path d="M15.9961 16V15.9993H16.0001V10.1313C16.0001 7.26068 15.3821 5.04935 12.0261 5.04935C10.4128 5.04935 9.33009 5.93468 8.88809 6.77401H8.84142V5.31735H5.65942V15.9993H8.97276V10.71C8.97276 9.31735 9.23676 7.97068 10.9614 7.97068C12.6608 7.97068 12.6861 9.56001 12.6861 10.7993V16H15.9961Z" fill="#92929D"/>
<path d="M0.26416 5.31799H3.58149V16H0.26416V5.31799Z" fill="#92929D"/>
<path d="M1.92133 0C0.860667 0 0 0.860667 0 1.92133C0 2.982 0.860667 3.86067 1.92133 3.86067C2.982 3.86067 3.84267 2.982 3.84267 1.92133C3.842 0.860667 2.98133 0 1.92133 0V0Z" fill="#92929D"/>
</g>
<defs>
<clipPath id="linkedin">
<rect width="16" height="16" fill="white"/>
</clipPath>
</defs>
</svg>
