<svg width="16" height="16" viewBox="0 0 16 16" fill="none" xmlns="http://www.w3.org/2000/svg">
<g clip-path="url(#cliprss)">
<path d="M2.286 16C3.54852 16 4.572 14.9765 4.572 13.714C4.572 12.4515 3.54852 11.428 2.286 11.428C1.02348 11.428 0 12.4515 0 13.714C0 14.9765 1.02348 16 2.286 16Z" fill="#92929D"/>
<path d="M7.61933 16H10.666C10.666 10.1193 5.88067 5.33401 0 5.33334V8.38134C4.20133 8.38201 7.61933 11.7987 7.61933 16Z" fill="#92929D"/>
<path d="M16 16C16 7.17733 8.82267 0 0 0V3.04733C7.14267 3.04733 12.9533 8.85667 12.9533 16H16Z" fill="#92929D"/>
</g>
<defs>
<clipPath id="cliprss">
<rect width="16" height="16" fill="white"/>
</clipPath>
</defs>
</svg>
