<svg width="16" height="16" viewBox="0 0 16 16" fill="none" xmlns="http://www.w3.org/2000/svg">
<g clip-path="url(#youtube)">
<path d="M15.646 3.95266L15.666 4.08332C15.4726 3.39732 14.9506 2.86799 14.2873 2.67532L14.2733 2.67199C13.026 2.33332 8.00662 2.33332 8.00662 2.33332C8.00662 2.33332 2.99995 2.32666 1.73995 2.67199C1.06395 2.86799 0.541285 3.39732 0.351285 4.06932L0.347952 4.08332C-0.118048 6.51732 -0.121381 9.44199 0.368619 12.048L0.347952 11.916C0.541285 12.602 1.06329 13.1313 1.72662 13.324L1.74062 13.3273C2.98662 13.6667 8.00729 13.6667 8.00729 13.6667C8.00729 13.6667 13.0133 13.6667 14.274 13.3273C14.9506 13.1313 15.4733 12.602 15.6633 11.93L15.6666 11.916C15.8786 10.784 16 9.48132 16 8.15065C16 8.10199 16 8.05265 15.9993 8.00332C16 7.95799 16 7.90399 16 7.84999C16 6.51865 15.8786 5.21599 15.646 3.95266ZM6.40529 10.434V5.57199L10.5826 8.00666L6.40529 10.434Z" fill="#92929D"/>
</g>
<defs>
<clipPath id="youtube">
<rect width="16" height="16" fill="white"/>
</clipPath>
</defs>
</svg>
